<svg xmlns="http://www.w3.org/2000/svg" width="46" height="46" viewBox="0 0 46 46">
  <path id="icons8-schoology" d="M25,2A23,23,0,1,0,48,25,23.015,23.015,0,0,0,25,2Zm0,2A21,21,0,1,1,4,25,20.985,20.985,0,0,1,25,4Zm0,2.5A18.5,18.5,0,1,0,43.5,25,18.521,18.521,0,0,0,25,6.5ZM24.758,12c5.314,0,8.756,3,9.525,8.254l-4.2.537c0-3.411-1.917-4.947-5.324-4.947-2.785,0-5.762.6-5.762,3.2,0,1.9,1.639,2.765,7.318,3.879C30.358,23.716,35,25.3,35,30.566,35,34.158,31.088,38,25.262,38c-6.031,0-9.692-3.086-10.621-8.951l4.252-.746c0,4.1,2.226,5.855,6.369,5.855,3.547,0,5.912-1.6,5.9-3.592-.015-1.909-1.155-2.929-5.582-3.881-4.63-1-10.424-2.041-10.424-7.643C15.152,14.472,20.1,12,24.758,12Z" transform="translate(-2 -2)" fill="#0ce49f"/>
</svg>
